<svg width="100" height="78" viewBox="0 0 100 78" xmlns="http://www.w3.org/2000/svg"><title>loading-spinner</title><g fill="#607882" fill-rule="evenodd"><path d="M88.541 45A39.3 39.3 0 0 0 89 39C89 17.46 71.54 0 50 0 39.244 0 29.505 4.354 22.45 11.396l7.07 7.071C34.768 13.235 42.007 10 50 10c16.016 0 29 12.984 29 29 0 1.93-.188 3.815-.548 5.638l.548.548V45h9.541zM11 39c0 21.54 17.46 39 39 39 10.817 0 20.605-4.404 27.67-11.516L70.6 59.413C65.344 64.716 58.056 68 50 68c-16.016 0-29-12.984-29-29 0-2 .202-3.953.588-5.838L21 32.574V39H11z"/><path d="M16 23l16 16H0l16-16zM84 55l16-16H68l16 16z"/></g></svg>